<svg xmlns="http://www.w3.org/2000/svg" xmlns:svg="http://www.w3.org/2000/svg" id="svg2" width="120.305" height="106.693" version="1.1" viewBox="0 0 120.305 106.693"><metadata id="metadata7"/><g id="layer1" transform="translate(0,-945.66918)"><path id="path8" d="m 29.727295,945.66933 -3.05408,5.69917 -23.6190998,42.92604 -3.054080047412,5.4191 3.054080047412,5.41466 23.6190998,41.539 3.19189,5.6947 61.82399,0 3.05407,-6.2504 17.644315,-35.5642 7.91749,-16.11505 -17.91993,0 -45.148805,0.13781 c -5.87255,-0.08 -11.27386,5.24128 -11.27386,11.11384 0,5.8725 5.40131,11.1983 11.27386,11.1138 l 27.22887,-0.1378 -6.6683,13.4744 -35.00854,0 -17.36869,-30.56302 17.5065,-31.6744 37.2402,0 8.68212,17.81769 22.369915,0 -14.101225,-33.79047 -3.05853,-6.25487 -64.33126,0" style="fill:#090"/></g></svg>